<svg width="435" height="154" viewBox="0 0 435 154" fill="none" xmlns="http://www.w3.org/2000/svg">
<path d="M126.75 6.5835C134.496 6.58367 140.833 12.9209 140.833 20.6665V147.417L112.666 119.25H14.083C6.33717 119.25 0 112.912 0 105.167V20.6665C0.000177905 12.9208 6.33728 6.5835 14.083 6.5835H126.75ZM48.0068 25.4937C41.8801 25.4974 36.0054 27.9351 31.6758 32.27C27.3463 36.6049 24.9162 42.4822 24.9199 48.6089C24.9237 54.7356 27.3614 60.6103 31.6963 64.9399L67.2529 101.022C67.5493 101.323 67.9025 101.562 68.292 101.725C68.6816 101.888 69.1001 101.972 69.5225 101.972C69.9446 101.972 70.3625 101.888 70.752 101.725C71.1416 101.562 71.4956 101.323 71.792 101.022L107.349 64.9399C109.5 62.8013 111.205 60.2567 112.367 57.4546C113.529 54.6525 114.124 51.6481 114.117 48.6147C114.119 44.0512 112.769 39.5893 110.237 35.7925C107.706 31.9958 104.106 29.0343 99.8926 27.2817C95.679 25.5292 91.0401 25.0644 86.5625 25.9458C82.0851 26.8273 77.9692 29.0152 74.7344 32.2339L69.5225 37.0874L64.3457 32.2495C60.0108 27.9201 54.1335 25.4899 48.0068 25.4937Z" fill="#EF7A1A"/>
<path d="M170.946 62V13.2348H177.7V56.0998H201.94V62H170.946ZM222.778 62.853C219.081 62.853 215.953 62.1659 213.394 60.7915C210.883 59.3698 208.963 57.2135 207.636 54.3227C206.357 51.4318 205.717 47.759 205.717 43.3043C205.717 38.8022 206.357 35.1294 207.636 32.2859C208.963 29.3951 210.906 27.2625 213.465 25.8882C216.025 24.4664 219.223 23.7556 223.062 23.7556C226.569 23.7556 229.507 24.4427 231.877 25.8171C234.246 27.144 236.024 29.1581 237.208 31.8594C238.44 34.5133 239.057 37.8544 239.057 41.8826V44.8682H212.186C212.281 47.8538 212.707 50.3182 213.465 52.2612C214.271 54.1568 215.456 55.5548 217.02 56.4553C218.584 57.3083 220.55 57.7348 222.92 57.7348C224.531 57.7348 225.929 57.5453 227.114 57.1661C228.346 56.7396 229.365 56.1472 230.171 55.389C231.024 54.6307 231.664 53.7303 232.09 52.6877C232.517 51.6451 232.754 50.5077 232.801 49.2756H238.914C238.867 51.266 238.488 53.1142 237.777 54.8203C237.066 56.479 236.024 57.9007 234.649 59.0855C233.275 60.2702 231.592 61.1944 229.602 61.8578C227.612 62.5213 225.337 62.853 222.778 62.853ZM212.328 40.1765H232.588C232.588 38.0913 232.351 36.3378 231.877 34.9161C231.403 33.4944 230.716 32.3333 229.815 31.4329C228.962 30.5325 227.943 29.8927 226.759 29.5136C225.621 29.087 224.318 28.8738 222.849 28.8738C220.669 28.8738 218.821 29.2766 217.304 30.0822C215.788 30.8879 214.627 32.1201 213.821 33.7787C213.015 35.4374 212.518 37.57 212.328 40.1765ZM259.874 62.853C257.315 62.853 255.064 62.5924 253.121 62.0711C251.178 61.5498 249.567 60.7915 248.287 59.7963C247.008 58.8011 246.036 57.6163 245.373 56.242C244.709 54.8677 244.377 53.3038 244.377 51.5503C244.377 51.3134 244.377 51.1001 244.377 50.9105C244.377 50.6736 244.401 50.484 244.449 50.3418H250.633C250.586 50.5314 250.562 50.6973 250.562 50.8394C250.562 50.9816 250.562 51.1238 250.562 51.266C250.609 52.9246 251.036 54.2279 251.842 55.1757C252.695 56.1235 253.856 56.787 255.325 57.1661C256.794 57.5453 258.429 57.7348 260.23 57.7348C261.794 57.7348 263.239 57.5453 264.566 57.1661C265.893 56.7396 266.936 56.1235 267.694 55.3179C268.499 54.4649 268.902 53.3986 268.902 52.119C268.902 50.5551 268.381 49.3703 267.338 48.5647C266.343 47.7117 265.016 47.0482 263.358 46.5743C261.699 46.1004 259.969 45.6028 258.168 45.0815C256.652 44.6549 255.135 44.181 253.619 43.6597C252.102 43.1384 250.728 42.4987 249.496 41.7404C248.311 40.9821 247.339 40.0106 246.581 38.8259C245.87 37.5937 245.515 36.0535 245.515 34.2053C245.515 32.5466 245.847 31.0775 246.51 29.7979C247.221 28.5183 248.216 27.4284 249.496 26.5279C250.775 25.6275 252.315 24.964 254.116 24.5375C255.965 24.0636 258.002 23.8267 260.23 23.8267C262.599 23.8267 264.661 24.0873 266.414 24.6086C268.215 25.1299 269.708 25.8645 270.893 26.8123C272.077 27.7601 272.954 28.8501 273.523 30.0822C274.092 31.267 274.376 32.5466 274.376 33.9209C274.376 34.2053 274.376 34.4896 274.376 34.7739C274.376 35.0109 274.352 35.2005 274.305 35.3426H268.191V34.5607C268.191 33.6129 267.931 32.7124 267.409 31.8594C266.936 30.959 266.082 30.2481 264.85 29.7268C263.666 29.1581 262.007 28.8738 259.874 28.8738C258.5 28.8738 257.315 28.9923 256.32 29.2292C255.325 29.4188 254.495 29.7505 253.832 30.2244C253.168 30.6509 252.671 31.1722 252.339 31.7883C252.007 32.357 251.842 33.0205 251.842 33.7787C251.842 35.0109 252.244 35.9587 253.05 36.6222C253.856 37.2857 254.922 37.8307 256.249 38.2572C257.623 38.6837 259.092 39.1576 260.656 39.6789C262.315 40.1528 263.997 40.6504 265.703 41.1717C267.457 41.6456 269.044 42.2617 270.466 43.02C271.935 43.7782 273.096 44.8208 273.949 46.1478C274.85 47.4273 275.3 49.1334 275.3 51.266C275.3 53.2564 274.921 54.9862 274.163 56.4553C273.404 57.9244 272.314 59.1329 270.893 60.0807C269.518 61.0285 267.883 61.7157 265.988 62.1422C264.139 62.6161 262.102 62.853 259.874 62.853ZM307.271 62.853C305.897 62.853 304.522 62.6872 303.148 62.3554C301.774 62.0237 300.494 61.4787 299.309 60.7204C298.125 59.9622 297.177 58.9196 296.466 57.5926C295.755 56.2183 295.4 54.5122 295.4 52.4744C295.4 49.9153 296.016 47.8064 297.248 46.1478C298.48 44.4891 300.186 43.2095 302.366 42.3091C304.593 41.3613 307.224 40.7215 310.257 40.3898C313.29 40.0106 316.583 39.8211 320.138 39.8211V35.5559C320.138 34.1816 319.901 32.9968 319.427 32.0016C318.953 31.0064 318.1 30.2481 316.868 29.7268C315.683 29.1581 313.977 28.8738 311.75 28.8738C309.617 28.8738 307.911 29.1581 306.631 29.7268C305.399 30.2481 304.522 30.9353 304.001 31.7883C303.527 32.6414 303.29 33.5892 303.29 34.6318V35.6981H297.248C297.201 35.4611 297.177 35.2242 297.177 34.9872C297.177 34.7502 297.177 34.4659 297.177 34.1342C297.177 31.8594 297.793 29.9638 299.025 28.4473C300.305 26.8834 302.082 25.7223 304.357 24.964C306.631 24.1584 309.238 23.7556 312.176 23.7556C315.304 23.7556 317.91 24.2058 319.996 25.1062C322.128 26.0066 323.716 27.2862 324.758 28.9449C325.848 30.6035 326.393 32.594 326.393 34.9161V55.1757C326.393 56.0761 326.607 56.7159 327.033 57.095C327.46 57.4268 327.981 57.5926 328.597 57.5926H331.369V61.7157C330.706 62 329.971 62.237 329.166 62.4265C328.36 62.6635 327.436 62.7819 326.393 62.7819C325.161 62.7819 324.142 62.5213 323.337 62C322.531 61.5261 321.915 60.8626 321.488 60.0096C321.062 59.1092 320.777 58.1139 320.635 57.024H320.138C319.285 58.2087 318.195 59.2513 316.868 60.1518C315.588 61.0048 314.143 61.6683 312.531 62.1422C310.92 62.6161 309.167 62.853 307.271 62.853ZM308.835 57.5926C310.351 57.5926 311.773 57.3557 313.1 56.8818C314.474 56.4079 315.683 55.7444 316.726 54.8914C317.768 53.9909 318.597 52.9246 319.214 51.6925C319.83 50.4603 320.138 49.1097 320.138 47.6406V44.5128C316.299 44.5128 313.029 44.726 310.328 45.1525C307.627 45.5791 305.541 46.3373 304.072 47.4273C302.65 48.5173 301.94 50.0575 301.94 52.0479C301.94 53.3275 302.224 54.3701 302.793 55.1757C303.361 55.9814 304.167 56.5974 305.21 57.024C306.252 57.4031 307.461 57.5926 308.835 57.5926ZM346.505 62L332.643 24.6086H339.183L346.008 43.3043C346.339 44.2047 346.718 45.3421 347.145 46.7164C347.571 48.0434 347.998 49.4177 348.424 50.8394C348.898 52.2138 349.278 53.4459 349.562 54.5359H349.917C350.249 53.4933 350.628 52.2849 351.055 50.9105C351.481 49.4888 351.908 48.1145 352.334 46.7875C352.808 45.4132 353.211 44.2521 353.543 43.3043L360.296 24.6086H366.623L352.761 62H346.505ZM372.445 17.5711V10.6046H378.701V17.5711H372.445ZM372.445 62V24.6086H378.701V62H372.445ZM401.492 62.853C398.932 62.853 396.681 62.5924 394.738 62.0711C392.795 61.5498 391.184 60.7915 389.904 59.7963C388.625 58.8011 387.653 57.6163 386.99 56.242C386.326 54.8677 385.995 53.3038 385.995 51.5503C385.995 51.3134 385.995 51.1001 385.995 50.9105C385.995 50.6736 386.018 50.484 386.066 50.3418H392.25C392.203 50.5314 392.179 50.6973 392.179 50.8394C392.179 50.9816 392.179 51.1238 392.179 51.266C392.227 52.9246 392.653 54.2279 393.459 55.1757C394.312 56.1235 395.473 56.787 396.942 57.1661C398.411 57.5453 400.046 57.7348 401.847 57.7348C403.411 57.7348 404.856 57.5453 406.183 57.1661C407.51 56.7396 408.553 56.1235 409.311 55.3179C410.117 54.4649 410.519 53.3986 410.519 52.119C410.519 50.5551 409.998 49.3703 408.956 48.5647C407.96 47.7117 406.633 47.0482 404.975 46.5743C403.316 46.1004 401.586 45.6028 399.785 45.0815C398.269 44.6549 396.752 44.181 395.236 43.6597C393.719 43.1384 392.345 42.4987 391.113 41.7404C389.928 40.9821 388.957 40.0106 388.198 38.8259C387.488 37.5937 387.132 36.0535 387.132 34.2053C387.132 32.5466 387.464 31.0775 388.127 29.7979C388.838 28.5183 389.833 27.4284 391.113 26.5279C392.392 25.6275 393.933 24.964 395.734 24.5375C397.582 24.0636 399.62 23.8267 401.847 23.8267C404.217 23.8267 406.278 24.0873 408.031 24.6086C409.832 25.1299 411.325 25.8645 412.51 26.8123C413.695 27.7601 414.571 28.8501 415.14 30.0822C415.709 31.267 415.993 32.5466 415.993 33.9209C415.993 34.2053 415.993 34.4896 415.993 34.7739C415.993 35.0109 415.969 35.2005 415.922 35.3426H409.809V34.5607C409.809 33.6129 409.548 32.7124 409.027 31.8594C408.553 30.959 407.7 30.2481 406.468 29.7268C405.283 29.1581 403.624 28.8738 401.492 28.8738C400.117 28.8738 398.932 28.9923 397.937 29.2292C396.942 29.4188 396.113 29.7505 395.449 30.2244C394.786 30.6509 394.288 31.1722 393.956 31.7883C393.625 32.357 393.459 33.0205 393.459 33.7787C393.459 35.0109 393.862 35.9587 394.667 36.6222C395.473 37.2857 396.539 37.8307 397.866 38.2572C399.24 38.6837 400.71 39.1576 402.273 39.6789C403.932 40.1528 405.615 40.6504 407.321 41.1717C409.074 41.6456 410.662 42.2617 412.083 43.02C413.553 43.7782 414.714 44.8208 415.567 46.1478C416.467 47.4273 416.917 49.1334 416.917 51.266C416.917 53.2564 416.538 54.9862 415.78 56.4553C415.022 57.9244 413.932 59.1329 412.51 60.0807C411.136 61.0285 409.501 61.7157 407.605 62.1422C405.757 62.6161 403.719 62.853 401.492 62.853ZM170.946 139V90.2348H189.145C194.263 90.2348 198.623 91.0878 202.224 92.7939C205.826 94.5 208.575 97.1539 210.47 100.756C212.413 104.31 213.385 108.93 213.385 114.617C213.385 120.21 212.413 124.806 210.47 128.408C208.575 132.01 205.826 134.687 202.224 136.441C198.623 138.147 194.263 139 189.145 139H170.946ZM177.7 133.171H189.002C191.704 133.171 194.121 132.839 196.253 132.176C198.386 131.465 200.21 130.399 201.727 128.977C203.243 127.555 204.381 125.731 205.139 123.503C205.945 121.228 206.347 118.527 206.347 115.399V113.978C206.347 110.755 205.945 108.03 205.139 105.803C204.381 103.528 203.243 101.68 201.727 100.258C200.258 98.8362 198.457 97.7936 196.324 97.1302C194.192 96.4193 191.751 96.0639 189.002 96.0639H177.7V133.171ZM236.87 139.853C233.174 139.853 230.046 139.166 227.487 137.792C224.975 136.37 223.056 134.214 221.729 131.323C220.449 128.432 219.809 124.759 219.809 120.304C219.809 115.802 220.449 112.129 221.729 109.286C223.056 106.395 224.999 104.262 227.558 102.888C230.117 101.466 233.316 100.756 237.154 100.756C240.661 100.756 243.6 101.443 245.969 102.817C248.339 104.144 250.116 106.158 251.301 108.859C252.533 111.513 253.149 114.854 253.149 118.883V121.868H226.278C226.373 124.854 226.8 127.318 227.558 129.261C228.363 131.157 229.548 132.555 231.112 133.455C232.676 134.308 234.643 134.735 237.012 134.735C238.624 134.735 240.022 134.545 241.206 134.166C242.439 133.74 243.457 133.147 244.263 132.389C245.116 131.631 245.756 130.73 246.182 129.688C246.609 128.645 246.846 127.508 246.893 126.276H253.007C252.959 128.266 252.58 130.114 251.869 131.82C251.158 133.479 250.116 134.901 248.742 136.085C247.367 137.27 245.685 138.194 243.694 138.858C241.704 139.521 239.429 139.853 236.87 139.853ZM226.42 117.177H246.68C246.68 115.091 246.443 113.338 245.969 111.916C245.495 110.494 244.808 109.333 243.908 108.433C243.055 107.532 242.036 106.893 240.851 106.514C239.714 106.087 238.41 105.874 236.941 105.874C234.761 105.874 232.913 106.277 231.396 107.082C229.88 107.888 228.719 109.12 227.913 110.779C227.108 112.437 226.61 114.57 226.42 117.177ZM288.894 139V96.135H272.188V90.2348H312.494V96.135H295.647V139H288.894ZM318.853 94.5711V87.6046H325.108V94.5711H318.853ZM318.853 139V101.609H325.108V139H318.853ZM334.819 139V101.609H339.866L340.435 107.224H340.933C341.88 105.708 342.947 104.476 344.132 103.528C345.316 102.58 346.62 101.893 348.041 101.466C349.463 100.993 351.003 100.756 352.662 100.756C355.079 100.756 357.164 101.253 358.918 102.248C360.671 103.196 361.974 104.855 362.827 107.224H363.254C364.154 105.708 365.197 104.499 366.382 103.599C367.566 102.651 368.893 101.94 370.362 101.466C371.832 100.993 373.395 100.756 375.054 100.756C377.329 100.756 379.319 101.158 381.025 101.964C382.731 102.722 384.058 104.002 385.006 105.803C386.001 107.556 386.499 109.926 386.499 112.911V139H380.243V113.907C380.243 112.39 380.054 111.134 379.675 110.139C379.343 109.144 378.845 108.385 378.182 107.864C377.518 107.296 376.736 106.893 375.836 106.656C374.983 106.419 374.059 106.3 373.064 106.3C371.405 106.3 369.865 106.727 368.443 107.58C367.069 108.433 365.955 109.665 365.102 111.276C364.249 112.888 363.822 114.807 363.822 117.034V139H357.567V113.907C357.567 112.39 357.377 111.134 356.998 110.139C356.619 109.144 356.121 108.385 355.505 107.864C354.889 107.296 354.131 106.893 353.231 106.656C352.378 106.419 351.477 106.3 350.529 106.3C348.823 106.3 347.236 106.727 345.767 107.58C344.345 108.433 343.207 109.665 342.354 111.276C341.501 112.888 341.075 114.807 341.075 117.034V139H334.819Z" fill="#EF7A1A"/>
</svg>
